<svg width="91" height="19" viewBox="0 0 91 19" fill="none" xmlns="http://www.w3.org/2000/svg">
<path d="M14.4375 12.3164C14.3047 14.1523 13.625 15.5977 12.3984 16.6523C11.1797 17.707 9.57031 18.2344 7.57031 18.2344C5.38281 18.2344 3.66016 17.5 2.40234 16.0312C1.15234 14.5547 0.527344 12.5312 0.527344 9.96094V8.91797C0.527344 7.27734 0.816406 5.83203 1.39453 4.58203C1.97266 3.33203 2.79688 2.375 3.86719 1.71094C4.94531 1.03906 6.19531 0.703125 7.61719 0.703125C9.58594 0.703125 11.1719 1.23047 12.375 2.28516C13.5781 3.33984 14.2734 4.82031 14.4609 6.72656H10.9453C10.8594 5.625 10.5508 4.82812 10.0195 4.33594C9.49609 3.83594 8.69531 3.58594 7.61719 3.58594C6.44531 3.58594 5.56641 4.00781 4.98047 4.85156C4.40234 5.6875 4.10547 6.98828 4.08984 8.75391V10.043C4.08984 11.8867 4.36719 13.2344 4.92188 14.0859C5.48438 14.9375 6.36719 15.3633 7.57031 15.3633C8.65625 15.3633 9.46484 15.1172 9.99609 14.625C10.5352 14.125 10.8438 13.3555 10.9219 12.3164H14.4375ZM19.8281 6.70312C20.7266 5.625 21.8555 5.08594 23.2148 5.08594C25.9648 5.08594 27.3594 6.68359 27.3984 9.87891V18H24.0117V9.97266C24.0117 9.24609 23.8555 8.71094 23.543 8.36719C23.2305 8.01562 22.7109 7.83984 21.9844 7.83984C20.9922 7.83984 20.2734 8.22266 19.8281 8.98828V18H16.4414V0H19.8281V6.70312ZM37.3008 18C37.1445 17.6953 37.0312 17.3164 36.9609 16.8633C36.1406 17.7773 35.0742 18.2344 33.7617 18.2344C32.5195 18.2344 31.4883 17.875 30.668 17.1562C29.8555 16.4375 29.4492 15.5312 29.4492 14.4375C29.4492 13.0938 29.9453 12.0625 30.9375 11.3438C31.9375 10.625 33.3789 10.2617 35.2617 10.2539H36.8203V9.52734C36.8203 8.94141 36.668 8.47266 36.3633 8.12109C36.0664 7.76953 35.5938 7.59375 34.9453 7.59375C34.375 7.59375 33.9258 7.73047 33.5977 8.00391C33.2773 8.27734 33.1172 8.65234 33.1172 9.12891H29.7305C29.7305 8.39453 29.957 7.71484 30.4102 7.08984C30.8633 6.46484 31.5039 5.97656 32.332 5.625C33.1602 5.26562 34.0898 5.08594 35.1211 5.08594C36.6836 5.08594 37.9219 5.48047 38.8359 6.26953C39.7578 7.05078 40.2188 8.15234 40.2188 9.57422V15.0703C40.2266 16.2734 40.3945 17.1836 40.7227 17.8008V18H37.3008ZM34.5 15.6445C35 15.6445 35.4609 15.5352 35.8828 15.3164C36.3047 15.0898 36.6172 14.7891 36.8203 14.4141V12.2344H35.5547C33.8594 12.2344 32.957 12.8203 32.8477 13.9922L32.8359 14.1914C32.8359 14.6133 32.9844 14.9609 33.2812 15.2344C33.5781 15.5078 33.9844 15.6445 34.5 15.6445ZM46.875 2.20312V5.32031H49.043V7.80469H46.875V14.1328C46.875 14.6016 46.9648 14.9375 47.1445 15.1406C47.3242 15.3438 47.668 15.4453 48.1758 15.4453C48.5508 15.4453 48.8828 15.418 49.1719 15.3633V17.9297C48.5078 18.1328 47.8242 18.2344 47.1211 18.2344C44.7461 18.2344 43.5352 17.0352 43.4883 14.6367V7.80469H41.6367V5.32031H43.4883V2.20312H46.875Z" fill="black"/>
<path d="M51.1523 18V0.9375H57.1289C59.1992 0.9375 60.7695 1.33594 61.8398 2.13281C62.9102 2.92187 63.4453 4.08203 63.4453 5.61328C63.4453 6.44922 63.2305 7.1875 62.8008 7.82812C62.3711 8.46094 61.7734 8.92578 61.0078 9.22266C61.8828 9.44141 62.5703 9.88281 63.0703 10.5469C63.5781 11.2109 63.832 12.0234 63.832 12.9844C63.832 14.625 63.3086 15.8672 62.2617 16.7109C61.2148 17.5547 59.7227 17.9844 57.7852 18H51.1523ZM54.668 10.5703V15.1758H57.6797C58.5078 15.1758 59.1523 14.9805 59.6133 14.5898C60.082 14.1914 60.3164 13.6445 60.3164 12.9492C60.3164 11.3867 59.5078 10.5938 57.8906 10.5703H54.668ZM54.668 8.08594H57.2695C59.043 8.05469 59.9297 7.34766 59.9297 5.96484C59.9297 5.19141 59.7031 4.63672 59.25 4.30078C58.8047 3.95703 58.0977 3.78516 57.1289 3.78516H54.668V8.08594ZM65.7305 11.543C65.7305 10.2852 65.9727 9.16406 66.457 8.17969C66.9414 7.19531 67.6367 6.43359 68.543 5.89453C69.457 5.35547 70.5156 5.08594 71.7188 5.08594C73.4297 5.08594 74.8242 5.60938 75.9023 6.65625C76.9883 7.70312 77.5938 9.125 77.7188 10.9219L77.7422 11.7891C77.7422 13.7344 77.1992 15.2969 76.1133 16.4766C75.0273 17.6484 73.5703 18.2344 71.7422 18.2344C69.9141 18.2344 68.4531 17.6484 67.3594 16.4766C66.2734 15.3047 65.7305 13.7109 65.7305 11.6953V11.543ZM69.1172 11.7891C69.1172 12.9922 69.3438 13.9141 69.7969 14.5547C70.25 15.1875 70.8984 15.5039 71.7422 15.5039C72.5625 15.5039 73.2031 15.1914 73.6641 14.5664C74.125 13.9336 74.3555 12.9258 74.3555 11.543C74.3555 10.3633 74.125 9.44922 73.6641 8.80078C73.2031 8.15234 72.5547 7.82812 71.7188 7.82812C70.8906 7.82812 70.25 8.15234 69.7969 8.80078C69.3438 9.44141 69.1172 10.4375 69.1172 11.7891ZM84.3984 9.10547L86.5312 5.32031H90.1523L86.543 11.5312L90.3047 18H86.6719L84.4102 14.0156L82.1602 18H78.5156L82.2773 11.5312L78.6797 5.32031H82.3125L84.3984 9.10547Z" fill="#F6AE2D"/>
</svg>
