<svg width="270" height="55" viewBox="0 0 270 55" fill="none" xmlns="http://www.w3.org/2000/svg">
<path d="M42.3125 36.9492C41.9141 42.457 39.875 46.793 36.1953 49.957C32.5391 53.1211 27.7109 54.7031 21.7109 54.7031C15.1484 54.7031 9.98047 52.5 6.20703 48.0938C2.45703 43.6641 0.582031 37.5938 0.582031 29.8828V26.7539C0.582031 21.832 1.44922 17.4961 3.18359 13.7461C4.91797 9.99609 7.39062 7.125 10.6016 5.13281C13.8359 3.11719 17.5859 2.10938 21.8516 2.10938C27.7578 2.10938 32.5156 3.69141 36.125 6.85547C39.7344 10.0195 41.8203 14.4609 42.3828 20.1797H31.8359C31.5781 16.875 30.6523 14.4844 29.0586 13.0078C27.4883 11.5078 25.0859 10.7578 21.8516 10.7578C18.3359 10.7578 15.6992 12.0234 13.9414 14.5547C12.207 17.0625 11.3164 20.9648 11.2695 26.2617V30.1289C11.2695 35.6602 12.1016 39.7031 13.7656 42.2578C15.4531 44.8125 18.1016 46.0898 21.7109 46.0898C24.9688 46.0898 27.3945 45.3516 28.9883 43.875C30.6055 42.375 31.5312 40.0664 31.7656 36.9492H42.3125ZM58.4844 20.1094C61.1797 16.875 64.5664 15.2578 68.6445 15.2578C76.8945 15.2578 81.0781 20.0508 81.1953 29.6367V54H71.0352V29.918C71.0352 27.7383 70.5664 26.1328 69.6289 25.1016C68.6914 24.0469 67.1328 23.5195 64.9531 23.5195C61.9766 23.5195 59.8203 24.668 58.4844 26.9648V54H48.3242V0H58.4844V20.1094ZM110.902 54C110.434 53.0859 110.094 51.9492 109.883 50.5898C107.422 53.332 104.223 54.7031 100.285 54.7031C96.5586 54.7031 93.4648 53.625 91.0039 51.4688C88.5664 49.3125 87.3477 46.5938 87.3477 43.3125C87.3477 39.2812 88.8359 36.1875 91.8125 34.0312C94.8125 31.875 99.1367 30.7852 104.785 30.7617H109.461V28.582C109.461 26.8242 109.004 25.418 108.09 24.3633C107.199 23.3086 105.781 22.7812 103.836 22.7812C102.125 22.7812 100.777 23.1914 99.793 24.0117C98.832 24.832 98.3516 25.957 98.3516 27.3867H88.1914C88.1914 25.1836 88.8711 23.1445 90.2305 21.2695C91.5898 19.3945 93.5117 17.9297 95.9961 16.875C98.4805 15.7969 101.27 15.2578 104.363 15.2578C109.051 15.2578 112.766 16.4414 115.508 18.8086C118.273 21.1523 119.656 24.457 119.656 28.7227V45.2109C119.68 48.8203 120.184 51.5508 121.168 53.4023V54H110.902ZM102.5 46.9336C104 46.9336 105.383 46.6055 106.648 45.9492C107.914 45.2695 108.852 44.3672 109.461 43.2422V36.7031H105.664C100.578 36.7031 97.8711 38.4609 97.543 41.9766L97.5078 42.5742C97.5078 43.8398 97.9531 44.8828 98.8438 45.7031C99.7344 46.5234 100.953 46.9336 102.5 46.9336ZM139.625 6.60938V15.9609H146.129V23.4141H139.625V42.3984C139.625 43.8047 139.895 44.8125 140.434 45.4219C140.973 46.0312 142.004 46.3359 143.527 46.3359C144.652 46.3359 145.648 46.2539 146.516 46.0898V53.7891C144.523 54.3984 142.473 54.7031 140.363 54.7031C133.238 54.7031 129.605 51.1055 129.465 43.9102V23.4141H123.91V15.9609H129.465V6.60938H139.625Z" fill="black"/>
<path d="M152.457 54V2.8125H170.387C176.598 2.8125 181.309 4.00781 184.52 6.39844C187.73 8.76562 189.336 12.2461 189.336 16.8398C189.336 19.3477 188.691 21.5625 187.402 23.4844C186.113 25.3828 184.32 26.7773 182.023 27.668C184.648 28.3242 186.711 29.6484 188.211 31.6406C189.734 33.6328 190.496 36.0703 190.496 38.9531C190.496 43.875 188.926 47.6016 185.785 50.1328C182.645 52.6641 178.168 53.9531 172.355 54H152.457ZM163.004 31.7109V45.5273H172.039C174.523 45.5273 176.457 44.9414 177.84 43.7695C179.246 42.5742 179.949 40.9336 179.949 38.8477C179.949 34.1602 177.523 31.7812 172.672 31.7109H163.004ZM163.004 24.2578H170.809C176.129 24.1641 178.789 22.043 178.789 17.8945C178.789 15.5742 178.109 13.9102 176.75 12.9023C175.414 11.8711 173.293 11.3555 170.387 11.3555H163.004V24.2578ZM196.191 34.6289C196.191 30.8555 196.918 27.4922 198.371 24.5391C199.824 21.5859 201.91 19.3008 204.629 17.6836C207.371 16.0664 210.547 15.2578 214.156 15.2578C219.289 15.2578 223.473 16.8281 226.707 19.9688C229.965 23.1094 231.781 27.375 232.156 32.7656L232.227 35.3672C232.227 41.2031 230.598 45.8906 227.34 49.4297C224.082 52.9453 219.711 54.7031 214.227 54.7031C208.742 54.7031 204.359 52.9453 201.078 49.4297C197.82 45.9141 196.191 41.1328 196.191 35.0859V34.6289ZM206.352 35.3672C206.352 38.9766 207.031 41.7422 208.391 43.6641C209.75 45.5625 211.695 46.5117 214.227 46.5117C216.688 46.5117 218.609 45.5742 219.992 43.6992C221.375 41.8008 222.066 38.7773 222.066 34.6289C222.066 31.0898 221.375 28.3477 219.992 26.4023C218.609 24.457 216.664 23.4844 214.156 23.4844C211.672 23.4844 209.75 24.457 208.391 26.4023C207.031 28.3242 206.352 31.3125 206.352 35.3672ZM252.195 27.3164L258.594 15.9609H269.457L258.629 34.5938L269.914 54H259.016L252.23 42.0469L245.48 54H234.547L245.832 34.5938L235.039 15.9609H245.938L252.195 27.3164Z" fill="#F6AE2D"/>
</svg>
