<svg width="758" height="720" viewBox="0 0 758 720" fill="none" xmlns="http://www.w3.org/2000/svg">
<g clip-path="url(#clip0)">
<path d="M758.001 613.436C746.479 616.798 737.08 625.09 732.38 635.846C723.284 632.634 713.43 630.841 703.197 630.841C672.877 630.841 646.196 646.23 630.733 669.461C622.698 665.726 613.753 663.71 604.278 663.71C600.109 663.71 596.092 664.083 592.226 664.905C592.226 664.531 592.226 664.158 592.226 663.71C592.226 644.661 578.582 628.75 560.466 624.94C553.492 601.41 531.51 584.154 505.359 584.154C483.605 584.154 464.655 596.106 454.952 613.66C448.206 607.46 439.186 603.576 429.256 603.576C423.571 603.576 418.189 604.846 413.338 607.012C407.426 597.973 402.196 588.487 397.723 578.477C386.657 553.826 380.517 526.336 380.517 497.502C380.517 494.887 380.593 492.348 380.668 489.733C381.957 456.342 391.432 425.043 407.274 397.703H341.707C357.549 425.043 367.024 456.417 368.313 489.808C368.389 492.348 368.465 494.888 368.465 497.427C368.465 525.813 362.476 552.929 351.713 577.431C344.663 593.417 335.643 608.357 324.804 621.878C315.632 610.673 301.609 603.576 285.918 603.576C270.152 603.576 256.129 610.747 246.957 621.952C239.605 617.694 231.115 615.229 221.943 615.229C207.238 615.229 193.973 621.653 184.953 631.738C171.612 612.241 149.024 599.393 123.403 599.393C82.4712 599.393 49.2708 632.111 49.2708 672.449C49.2708 672.673 49.2708 672.898 49.2708 673.122C21.528 687.016 2.0474 714.655 0.152397 747H179.04H545.837H758.001V613.436Z" fill="black"/>
<path d="M371.496 489.659C364.371 490.555 358.686 500.415 357.624 508.558C357.321 510.948 357.17 513.264 357.17 515.654C357.17 523.423 358.837 530.818 361.869 538.363C364.901 545.758 369.449 553.303 374.907 557.635C380.44 553.303 384.912 545.758 387.944 538.363C390.976 530.818 392.644 523.423 392.644 515.654C392.644 513.264 392.492 510.948 392.189 508.558C391.128 500.341 385.443 490.555 378.318 489.659C376.12 489.434 373.77 489.434 371.496 489.659Z" stroke="#601B23" stroke-width="6" stroke-miterlimit="10" stroke-linecap="round" stroke-linejoin="round"/>
<path d="M371.496 489.659C364.371 490.555 358.686 500.415 357.624 508.558C357.321 510.948 357.17 513.264 357.17 515.654C357.17 523.423 358.837 530.818 361.869 538.363C364.901 545.758 369.449 553.303 374.907 557.635C380.44 553.303 384.912 545.758 387.944 538.363C390.976 530.818 392.644 523.423 392.644 515.654C392.644 513.264 392.492 510.948 392.189 508.558C391.128 500.341 385.443 490.555 378.318 489.659C376.12 489.434 373.77 489.434 371.496 489.659Z" fill="#E36535"/>
<path d="M406.743 536.495C406.743 550.39 403.787 563.686 398.329 577.207C398.177 577.655 397.95 578.103 397.723 578.626C392.265 591.475 384.458 604.323 374.983 611.868C365.204 604.099 357.245 590.728 351.712 577.506C351.636 577.431 351.636 577.356 351.56 577.207C346.103 563.686 343.147 550.39 343.147 536.495C343.147 532.238 343.45 528.054 343.98 523.722C345.8 509.23 355.805 491.75 368.312 489.883C368.464 489.883 368.615 489.808 368.767 489.808C372.709 489.36 376.726 489.36 380.668 489.733C380.819 489.733 381.047 489.733 381.198 489.808C393.933 491.377 404.166 509.08 405.985 523.722C406.44 528.054 406.743 532.238 406.743 536.495Z" fill="#F6AE2D"/>
<path d="M406.743 536.495C406.743 550.39 403.787 563.686 398.329 577.207C398.177 577.655 397.95 578.103 397.723 578.626C392.265 591.475 384.458 604.323 374.983 611.868C365.204 604.099 357.245 590.728 351.712 577.506C351.636 577.431 351.636 577.356 351.56 577.207C346.103 563.686 343.147 550.39 343.147 536.495C343.147 532.238 343.45 528.054 343.98 523.722C345.8 509.23 355.805 491.75 368.312 489.883C368.464 489.883 368.615 489.808 368.767 489.808C372.709 489.36 376.726 489.36 380.668 489.733C380.819 489.733 381.047 489.733 381.198 489.808C393.933 491.377 404.166 509.08 405.985 523.722C406.44 528.054 406.743 532.238 406.743 536.495Z" stroke="#601B23" stroke-width="6" stroke-miterlimit="10" stroke-linecap="round" stroke-linejoin="round"/>
<path d="M283.492 375.592L258.781 385.079V338.839L334.657 280.499V367.972L316.313 377.459C306.535 372.38 294.635 371.334 283.492 375.592Z" fill="#F26419"/>
<path d="M250.746 397.18C243.015 386.124 238.543 373.052 238.543 359.083C238.543 341.379 245.592 325.169 257.341 312.694C269.09 325.169 276.215 341.379 276.291 359.083C276.291 373.126 271.819 386.124 264.163 397.18H250.746Z" fill="#CF264D"/>
<path opacity="0.72" d="M258.781 385.079L283.34 375.666C283.644 369.242 283.189 362.669 281.976 356.095C280.157 346.235 276.746 336.972 272.046 328.605L258.781 338.839V385.079Z" fill="#A5143A"/>
<path opacity="0.23" d="M261.965 351.762L334.733 295.887V280.499L258.781 338.765V385.079L261.965 383.883V351.762Z" fill="#F4A15D"/>
<path opacity="0.72" d="M304.489 373.5C308.658 374.172 312.599 375.517 316.313 377.459L334.657 367.972V280.499L302.669 305.075C301.078 314.562 300.32 324.497 300.32 334.731C300.395 348.251 301.836 361.324 304.489 373.5Z" fill="#A5143A"/>
<path d="M283.492 375.592L258.781 385.079V338.839L334.657 280.499V367.972L316.313 377.459C306.535 372.38 294.635 371.334 283.492 375.592Z" stroke="#601B23" stroke-width="6" stroke-miterlimit="10" stroke-linecap="round" stroke-linejoin="round"/>
<path d="M250.746 397.18C243.015 386.124 238.543 373.052 238.543 359.083C238.543 341.379 245.592 325.169 257.341 312.694C269.09 325.169 276.215 341.379 276.291 359.083C276.291 373.126 271.819 386.124 264.163 397.18H250.746Z" fill="#CF264D"/>
<path opacity="0.23" d="M256.204 312.694C257.114 313.665 258.023 314.711 258.857 315.757C250.974 327.709 246.426 341.752 246.35 356.692C246.35 371.483 248.624 385.303 256.356 397.255H249.382C241.726 386.199 237.254 373.126 237.254 359.158C237.33 341.379 244.455 325.169 256.204 312.694Z" fill="#F4A15D"/>
<path opacity="0.32" d="M256.204 312.694C256.507 312.993 256.81 313.366 257.114 313.74C248.245 326.663 243.166 341.827 243.091 358.112C243.091 372.23 246.956 385.527 253.703 397.255H249.382C241.726 386.199 237.254 373.126 237.254 359.158C237.33 341.379 244.455 325.169 256.204 312.694Z" fill="#F4A15D"/>
<path opacity="0.37" d="M276.291 359.083C276.291 341.379 269.166 325.244 257.341 312.694C256.431 313.665 255.522 314.711 254.688 315.757C262.571 327.709 267.119 341.752 267.195 356.692C267.195 371.483 262.799 385.303 255.067 397.255H264.163C271.819 386.124 276.291 373.052 276.291 359.083Z" fill="#A5143A"/>
<path opacity="0.72" d="M276.291 359.083C276.291 341.379 269.166 325.244 257.341 312.694C257.038 312.993 256.735 313.366 256.431 313.74C265.3 326.663 270.379 341.827 270.454 358.112C270.454 372.23 266.589 385.527 259.842 397.255H264.163C271.819 386.124 276.291 373.052 276.291 359.083Z" fill="#A5143A"/>
<path opacity="0.37" d="M257.341 312.694C256.431 313.665 255.522 314.711 254.688 315.757C262.571 327.709 267.119 341.752 267.195 356.692C267.195 371.483 262.799 385.303 255.067 397.255H264.163C271.819 386.199 276.291 373.126 276.291 359.158C276.215 341.379 269.09 325.169 257.341 312.694Z" fill="#A5143A"/>
<path opacity="0.72" d="M257.341 312.694C257.038 312.993 256.735 313.366 256.431 313.74C265.3 326.663 270.379 341.827 270.454 358.112C270.454 372.23 266.589 385.527 259.842 397.255H264.163C271.819 386.199 276.291 373.126 276.291 359.158C276.215 341.379 269.09 325.169 257.341 312.694Z" fill="#A5143A"/>
<path d="M265.982 326.14C263.178 321.285 259.842 316.803 255.977 312.62C252.111 316.728 248.776 321.285 245.971 326.14H265.982Z" fill="#601B23"/>
<path d="M250.746 397.18C243.015 386.124 238.543 373.052 238.543 359.083C238.543 341.379 245.592 325.169 257.341 312.694C269.09 325.169 276.215 341.379 276.291 359.083C276.291 373.126 271.819 386.124 264.163 397.18H250.746Z" stroke="#601B23" stroke-width="6" stroke-miterlimit="10" stroke-linecap="round" stroke-linejoin="round"/>
<path d="M349.211 454.848C349.211 454.848 340.039 456.791 326.85 469.788C322.074 474.494 314.57 484.056 309.037 491.302C306.763 494.29 301.911 492.796 301.836 489.061L300.016 409.505C299.637 407.264 300.244 404.949 301.684 403.231L321.544 378.878L349.211 454.848Z" fill="#F26419"/>
<path opacity="0.32" d="M301.684 490.63C306.005 490.032 309.264 486.372 309.34 482.039L310.174 408.086C309.795 405.845 310.401 403.529 311.841 401.811L324.272 386.498L321.468 378.878L301.684 403.156C300.244 404.949 299.637 407.19 300.016 409.431L301.684 490.63Z" fill="#F4A15D"/>
<path opacity="0.72" d="M349.211 454.848L321.544 378.878L310.553 392.399C316.465 414.809 325.788 437.593 338.371 460.301C345.042 455.745 349.211 454.848 349.211 454.848Z" fill="#A5143A"/>
<path d="M349.211 454.848C349.211 454.848 340.039 456.791 326.85 469.788C322.074 474.494 314.57 484.056 309.037 491.302C306.763 494.29 301.911 492.796 301.836 489.061L300.016 409.505C299.637 407.264 300.244 404.949 301.684 403.231L321.544 378.878L349.211 454.848Z" stroke="#601B23" stroke-width="6" stroke-miterlimit="10" stroke-linecap="round" stroke-linejoin="round"/>
<path d="M243.545 387.319H268.484" stroke="#601B23" stroke-width="4" stroke-miterlimit="10" stroke-linecap="round" stroke-linejoin="round"/>
<path d="M250.746 397.18C243.015 386.124 238.543 373.052 238.543 359.083C238.543 341.379 245.592 325.169 257.341 312.694C269.09 325.169 276.215 341.379 276.291 359.083C276.291 373.126 271.819 386.124 264.163 397.18H250.746Z" fill="#F26419"/>
<path d="M250.746 397.18C243.015 386.124 238.543 373.052 238.543 359.083C238.543 341.379 245.592 325.169 257.341 312.694C269.09 325.169 276.215 341.379 276.291 359.083C276.291 373.126 271.819 386.124 264.163 397.18H250.746Z" fill="#F26419"/>
<path opacity="0.23" d="M256.204 312.694C257.114 313.665 258.023 314.711 258.857 315.757C250.974 327.709 246.426 341.752 246.35 356.692C246.35 371.483 248.624 385.303 256.356 397.255H249.382C241.726 386.199 237.254 373.126 237.254 359.158C237.33 341.379 244.455 325.169 256.204 312.694Z" fill="#F4A15D"/>
<path opacity="0.32" d="M256.204 312.694C256.507 312.993 256.81 313.366 257.114 313.74C248.245 326.663 243.166 341.827 243.091 358.112C243.091 372.23 246.956 385.527 253.703 397.255H249.382C241.726 386.199 237.254 373.126 237.254 359.158C237.33 341.379 244.455 325.169 256.204 312.694Z" fill="#F4A15D"/>
<path opacity="0.37" d="M276.291 359.083C276.291 341.379 269.166 325.244 257.341 312.694C256.431 313.665 255.522 314.711 254.688 315.757C262.571 327.709 267.119 341.752 267.195 356.692C267.195 371.483 262.799 385.303 255.067 397.255H264.163C271.819 386.124 276.291 373.052 276.291 359.083Z" fill="#A5143A"/>
<path opacity="0.72" d="M276.291 359.083C276.291 341.379 269.166 325.244 257.341 312.694C257.038 312.993 256.735 313.366 256.431 313.74C265.3 326.663 270.379 341.827 270.454 358.112C270.454 372.23 266.589 385.527 259.842 397.255H264.163C271.819 386.124 276.291 373.052 276.291 359.083Z" fill="#A5143A"/>
<path opacity="0.37" d="M257.341 312.694C256.431 313.665 255.522 314.711 254.688 315.757C262.571 327.709 267.119 341.752 267.195 356.692C267.195 371.483 262.799 385.303 255.067 397.255H264.163C271.819 386.199 276.291 373.126 276.291 359.158C276.215 341.379 269.09 325.169 257.341 312.694Z" fill="#F26419"/>
<path opacity="0.72" d="M257.341 312.694C257.038 312.993 256.735 313.366 256.431 313.74C265.3 326.663 270.379 341.827 270.454 358.112C270.454 372.23 266.589 385.527 259.842 397.255H264.163C271.819 386.199 276.291 373.126 276.291 359.158C276.215 341.379 269.09 325.169 257.341 312.694Z" fill="#A5143A"/>
<path d="M267.347 326.14C264.542 321.285 261.207 316.803 257.341 312.62C253.475 316.728 250.14 321.285 247.335 326.14H267.347Z" fill="#601B23"/>
<path d="M250.746 397.18C243.015 386.124 238.543 373.052 238.543 359.083C238.543 341.379 245.592 325.169 257.341 312.694C269.09 325.169 276.215 341.379 276.291 359.083C276.291 373.126 271.819 386.124 264.163 397.18H250.746Z" stroke="#601B23" stroke-width="6" stroke-miterlimit="10" stroke-linecap="round" stroke-linejoin="round"/>
<path d="M243.545 387.319H268.484" stroke="#601B23" stroke-width="4" stroke-miterlimit="10" stroke-linecap="round" stroke-linejoin="round"/>
<path d="M462.001 375.592L486.712 385.079V338.839L410.836 280.499V367.972L429.18 377.459C438.958 372.38 450.858 371.334 462.001 375.592Z" fill="#F26419"/>
<path opacity="0.72" d="M486.712 385.079L462.153 375.666C461.849 369.242 462.304 362.669 463.517 356.095C465.336 346.235 468.747 336.972 473.447 328.605L486.712 338.839V385.079Z" fill="#A5143A"/>
<path opacity="0.23" d="M483.604 351.762L410.836 295.887V280.499L486.712 338.765V385.079L483.604 383.883V351.762Z" fill="#F4A15D"/>
<path opacity="0.72" d="M441.004 373.5C436.835 374.172 432.894 375.517 429.18 377.459L410.836 367.972V280.499L442.824 305.075C444.415 314.562 445.173 324.497 445.173 334.731C445.173 348.251 443.733 361.324 441.004 373.5Z" fill="#A5143A"/>
<path d="M462.001 375.592L486.712 385.079V338.839L410.836 280.499V367.972L429.18 377.459C438.958 372.38 450.858 371.334 462.001 375.592Z" stroke="#601B23" stroke-width="6" stroke-miterlimit="10" stroke-linecap="round" stroke-linejoin="round"/>
<path d="M396.358 454.848C396.358 454.848 405.53 456.791 418.719 469.788C423.495 474.494 430.999 484.056 436.532 491.302C438.806 494.29 443.657 492.796 443.733 489.061L445.552 409.505C445.931 407.264 445.325 404.949 443.885 403.231L424.025 378.878L396.358 454.848Z" fill="#F26419"/>
<path opacity="0.72" d="M443.809 490.63C439.488 490.032 436.229 486.372 436.153 482.039L435.319 408.086C435.698 405.845 435.092 403.529 433.652 401.811L421.221 386.498L424.025 378.878L443.885 403.231C445.325 405.023 445.931 407.264 445.552 409.505L443.809 490.63Z" fill="#A5143A"/>
<path opacity="0.72" d="M396.358 454.848L424.025 378.878L435.016 392.399C429.104 414.809 419.78 437.593 407.198 460.301C400.527 455.745 396.358 454.848 396.358 454.848Z" fill="#A5143A"/>
<path d="M396.358 454.848C396.358 454.848 405.53 456.791 418.719 469.788C423.495 474.494 430.999 484.056 436.532 491.302C438.806 494.29 443.657 492.796 443.733 489.061L445.552 409.505C445.931 407.264 445.325 404.949 443.885 403.231L424.025 378.878L396.358 454.848Z" stroke="#601B23" stroke-width="6" stroke-miterlimit="10" stroke-linecap="round" stroke-linejoin="round"/>
<path d="M395.979 497.577C396.813 488.687 395.6 480.321 380.44 458.284C377.939 454.774 371.951 454.774 369.449 458.284C354.289 480.396 353.076 488.762 353.91 497.577C354.062 498.697 356.108 499.967 357.397 499.519C366.114 495.112 383.775 495.112 392.492 499.519C393.781 499.967 395.828 498.772 395.979 497.577Z" fill="#4E8280"/>
<g opacity="0.32">
<g opacity="0.32">
<g opacity="0.32">
<path opacity="0.32" d="M361.566 497.577C360.732 488.687 361.945 480.321 377.105 458.285C377.56 457.612 378.166 457.089 378.773 456.716C375.892 454.848 371.496 455.371 369.449 458.285C354.289 480.396 353.076 488.762 353.91 497.577C354.062 498.697 356.108 499.967 357.397 499.519C358.686 498.921 360.126 498.324 361.642 497.875C361.642 497.801 361.566 497.726 361.566 497.577Z" fill="#F4A15D"/>
</g>
<g opacity="0.32">
<path opacity="0.32" d="M378.773 496.382C384.003 496.755 388.93 497.801 392.492 499.519C393.629 499.967 395.449 498.921 395.903 497.876C390.901 496.456 384.685 495.933 378.773 496.382Z" fill="#F4A15D"/>
</g>
</g>
</g>
<path d="M372.102 458.285C371.875 457.986 371.647 457.762 371.42 457.538C374.225 454.774 379.455 455.072 381.729 458.285C396.889 480.396 398.102 488.762 397.268 497.577C397.116 498.697 395.07 499.967 393.781 499.519C392.038 498.622 389.915 497.95 387.641 497.427C388.475 488.613 387.186 480.246 372.102 458.285Z" fill="#37605D"/>
<path d="M395.979 497.577C396.813 488.687 395.6 480.321 380.44 458.284C377.939 454.774 371.951 454.774 369.449 458.284C354.289 480.396 353.076 488.762 353.91 497.577C354.062 498.697 356.108 499.967 357.397 499.519C366.114 495.112 383.775 495.112 392.492 499.519C393.781 499.967 395.828 498.772 395.979 497.577Z" stroke="#601B23" stroke-width="6" stroke-miterlimit="10" stroke-linecap="round" stroke-linejoin="round"/>
<path d="M392.038 470.759C427.739 413.166 440.701 356.618 432.666 309.482C425.693 268.546 403.256 239.04 374.907 220.589C346.558 239.04 324.121 268.546 317.147 309.482C309.112 356.618 322.15 413.166 357.776 470.759H392.038Z" fill="#F26419"/>
<path opacity="0.23" d="M344.284 310.304C348.832 273.253 360.656 243.821 376.574 221.784C376.044 221.411 375.437 221.037 374.907 220.664C346.558 239.115 324.121 268.621 317.147 309.557C309.112 356.692 322.15 413.24 357.776 470.834H364.977C345.193 413.24 338.523 357.888 344.284 310.304Z" fill="#F4A15D"/>
<path opacity="0.37" d="M432.666 309.482C425.769 268.845 403.635 239.488 375.513 221.037C380.743 229.329 387.414 241.281 393.023 256.445C403.256 284.009 404.393 306.718 404.999 320.986C407.728 385.153 382.79 456.118 377.56 470.834H392.038C427.739 413.166 440.701 356.618 432.666 309.482Z" fill="#A5143A"/>
<path opacity="0.72" d="M432.666 309.482C425.693 268.546 403.256 239.04 374.907 220.589C374.149 221.037 373.467 221.56 372.709 222.008C383.472 230.3 391.659 239.189 397.874 247.705C453.663 324.198 400.148 438.713 392.796 453.877C392.492 443.569 391.128 430.795 387.262 416.527C384.761 407.414 381.729 399.421 378.697 392.623C377.56 417.947 376.423 443.27 375.286 468.593H384.685C384.458 469.34 384.23 470.012 383.927 470.759H391.886C427.739 413.166 440.701 356.618 432.666 309.482Z" fill="#A5143A"/>
<path opacity="0.32" d="M326.698 322.48C327.759 310.528 331.701 271.684 356.033 239.787C359.898 234.782 365.659 227.984 365.204 227.611C364.522 227.013 351.181 238.891 341.706 251.515C329.806 267.277 321.089 286.624 317.223 309.482C309.188 356.618 322.226 413.166 357.852 470.759H360.96C351.181 451.562 344.738 434.231 340.342 420.561C337.462 411.373 332.383 395.088 329.199 373.276C327.153 358.635 324.879 342.948 326.698 322.48Z" fill="#F4A15D"/>
<path opacity="0.72" d="M379 337.868C390.387 337.868 399.618 328.771 399.618 317.55C399.618 306.328 390.387 297.231 379 297.231C367.613 297.231 358.382 306.328 358.382 317.55C358.382 328.771 367.613 337.868 379 337.868Z" fill="#A5143A" stroke="#A5143A" stroke-width="6" stroke-miterlimit="10" stroke-linecap="round" stroke-linejoin="round"/>
<path d="M392.038 470.759C427.739 413.166 440.701 356.618 432.666 309.482C425.693 268.546 403.256 239.04 374.907 220.589C346.558 239.04 324.121 268.546 317.147 309.482C309.112 356.618 322.15 413.166 357.776 470.759H392.038Z" stroke="#601B23" stroke-width="6" stroke-miterlimit="10" stroke-linecap="round" stroke-linejoin="round"/>
<path d="M374.907 334.731C386.294 334.731 395.524 325.634 395.524 314.412C395.524 303.191 386.294 294.094 374.907 294.094C363.52 294.094 354.289 303.191 354.289 314.412C354.289 325.634 363.52 334.731 374.907 334.731Z" fill="#ABCFD8"/>
<path opacity="0.93" d="M372.102 325.543C378.968 325.543 384.533 320.058 384.533 313.292C384.533 306.526 378.968 301.041 372.102 301.041C365.237 301.041 359.671 306.526 359.671 313.292C359.671 320.058 365.237 325.543 372.102 325.543Z" fill="#E2F0F2"/>
<path d="M374.907 334.731C386.294 334.731 395.524 325.634 395.524 314.412C395.524 303.191 386.294 294.094 374.907 294.094C363.52 294.094 354.289 303.191 354.289 314.412C354.289 325.634 363.52 334.731 374.907 334.731Z" stroke="#601B23" stroke-width="6" stroke-miterlimit="10" stroke-linecap="round" stroke-linejoin="round"/>
<path d="M345.8 246.361C364.674 239.936 385.367 239.936 404.241 246.435C395.676 236.201 385.746 227.611 374.983 220.589C364.219 227.611 354.289 236.201 345.8 246.361Z" fill="#601B23"/>
<path d="M345.8 246.361C364.674 239.936 385.367 239.936 404.241 246.435C395.676 236.201 385.746 227.611 374.983 220.589C364.219 227.611 354.289 236.201 345.8 246.361Z" stroke="#601B23" stroke-width="6" stroke-miterlimit="10" stroke-linecap="round" stroke-linejoin="round"/>
<path d="M374.907 505.719C375.741 505.719 376.423 504.823 376.499 503.627L382.184 412.195C382.79 402.782 379.758 394.042 375.286 391.951C374.983 391.801 374.679 391.801 374.452 391.951C369.98 393.968 366.948 402.708 367.554 412.195L373.239 503.627C373.391 504.823 374.149 505.719 374.907 505.719Z" fill="#BC1D4E"/>
<path opacity="0.74" d="M374.907 505.719C375.741 505.719 376.423 504.823 376.499 503.627L382.184 412.195C382.79 402.782 379.758 394.042 375.286 391.951C374.983 391.801 374.679 391.801 374.452 391.951C369.98 393.968 366.948 402.708 367.554 412.195L373.239 503.627C373.391 504.823 374.149 505.719 374.907 505.719Z" fill="#F26419"/>
<g opacity="0.53">
<g opacity="0.53">
<g opacity="0.53">
<path opacity="0.53" d="M374.528 391.951C370.056 393.968 367.024 402.708 367.63 412.195L373.315 503.627C373.391 504.599 373.846 505.42 374.452 505.644V391.951H374.528Z" fill="#F4A15D"/>
</g>
<g opacity="0.53">
<path opacity="0.53" d="M374.528 391.951H375.362C375.058 391.801 374.755 391.801 374.528 391.951Z" fill="#F4A15D"/>
</g>
</g>
</g>
<path d="M374.907 505.719C375.741 505.719 376.423 504.823 376.499 503.627L382.184 412.195C382.79 402.782 379.758 394.042 375.286 391.951C374.983 391.801 374.679 391.801 374.452 391.951C369.98 393.968 366.948 402.708 367.554 412.195L373.239 503.627C373.391 504.823 374.149 505.719 374.907 505.719Z" stroke="#601B23" stroke-width="6" stroke-miterlimit="10" stroke-linecap="round" stroke-linejoin="round"/>
<path d="M486.181 397.18C478.45 386.124 473.977 373.052 473.977 359.083C473.977 341.379 481.027 325.169 492.776 312.694C504.525 325.169 511.65 341.379 511.726 359.083C511.726 373.126 507.254 386.124 499.598 397.18H486.181Z" fill="#CF264D"/>
<path d="M486.181 397.18C478.45 386.124 473.977 373.052 473.977 359.083C473.977 341.379 481.027 325.169 492.776 312.694C504.525 325.169 511.65 341.379 511.726 359.083C511.726 373.126 507.254 386.124 499.598 397.18H486.181Z" fill="#F26419"/>
<path opacity="0.23" d="M491.715 312.694C492.624 313.665 493.534 314.711 494.368 315.757C486.484 327.709 481.936 341.752 481.861 356.692C481.861 371.483 484.135 385.303 491.866 397.255H484.893C477.237 386.199 472.765 373.126 472.765 359.158C472.765 341.379 479.89 325.169 491.715 312.694Z" fill="#F4A15D"/>
<path opacity="0.32" d="M491.715 312.694C492.018 312.993 492.321 313.366 492.624 313.74C483.756 326.663 478.677 341.827 478.601 358.112C478.601 372.23 482.467 385.527 489.213 397.255H484.893C477.237 386.199 472.765 373.126 472.765 359.158C472.765 341.379 479.89 325.169 491.715 312.694Z" fill="#F4A15D"/>
<path opacity="0.37" d="M511.726 359.083C511.726 341.379 504.601 325.244 492.776 312.694C491.866 313.665 490.957 314.711 490.123 315.757C498.006 327.709 502.554 341.752 502.63 356.692C502.63 371.483 498.233 385.303 490.502 397.255H499.598C507.254 386.124 511.726 373.052 511.726 359.083Z" fill="#A5143A"/>
<path opacity="0.72" d="M511.726 359.083C511.726 341.379 504.601 325.244 492.776 312.694C492.473 312.993 492.169 313.366 491.866 313.74C500.735 326.663 505.813 341.827 505.889 358.112C505.889 372.23 502.023 385.527 495.277 397.255H499.598C507.254 386.124 511.726 373.052 511.726 359.083Z" fill="#A5143A"/>
<path opacity="0.37" d="M492.776 312.694C491.866 313.665 490.957 314.711 490.123 315.757C498.006 327.709 502.554 341.752 502.63 356.692C502.63 371.483 498.233 385.303 490.502 397.255H499.598C507.254 386.199 511.726 373.126 511.726 359.158C511.726 341.379 504.601 325.169 492.776 312.694Z" fill="#A5143A"/>
<path opacity="0.72" d="M492.776 312.694C492.473 312.993 492.169 313.366 491.866 313.74C500.735 326.663 505.813 341.827 505.889 358.112C505.889 372.23 502.023 385.527 495.277 397.255H499.598C507.254 386.199 511.726 373.126 511.726 359.158C511.726 341.379 504.601 325.169 492.776 312.694Z" fill="#A5143A"/>
<path d="M502.857 326.14C500.053 321.285 496.717 316.803 492.852 312.62C488.986 316.728 485.651 321.285 482.846 326.14H502.857Z" fill="#601B23"/>
<path d="M486.181 397.18C478.45 386.124 473.977 373.052 473.977 359.083C473.977 341.379 481.027 325.169 492.776 312.694C504.525 325.169 511.65 341.379 511.726 359.083C511.726 373.126 507.254 386.124 499.598 397.18H486.181Z" stroke="#601B23" stroke-width="6" stroke-miterlimit="10" stroke-linecap="round" stroke-linejoin="round"/>
<path d="M480.42 387.319H505.359" stroke="#601B23" stroke-width="4" stroke-miterlimit="10" stroke-linecap="round" stroke-linejoin="round"/>
<path opacity="0.41" d="M351.56 243.821C351.56 243.821 356.715 235.828 374.225 222.382C366.114 233.213 364.522 240.011 363.992 240.534C358.837 241.505 351.56 243.821 351.56 243.821Z" fill="white"/>
</g>
<defs>
<clipPath id="clip0">
<rect width="758" height="747" fill="white"/>
</clipPath>
</defs>
</svg>
